<svg width="164" height="250" viewBox="0 0 164 250" fill="none" xmlns="http://www.w3.org/2000/svg">
<path d="M161.835 168.54C167.505 190.007 162.038 213.837 145.432 230.682C128.827 247.527 105.336 253.073 84.1738 247.321C78.5036 225.854 83.9713 202.025 100.577 185.18C117.182 168.335 140.673 162.788 161.835 168.54Z" fill="#46AD5B"/>
<path d="M2.16498 126.946C23.327 121.194 46.8178 126.741 63.4234 143.586C80.0289 160.431 85.4966 184.261 79.8264 205.728C58.6644 211.48 35.1736 205.933 18.5681 189.088C1.9625 172.243 -3.50522 148.413 2.16498 126.946Z" fill="#46AD5B"/>
<path d="M84.1738 164.177C78.5036 142.71 83.9713 118.88 100.577 102.035C117.182 85.19 140.673 79.6434 161.835 85.3954C167.505 106.863 162.038 130.692 145.432 147.537C128.827 164.331 105.336 169.878 84.1738 164.177Z" fill="#46AD5B"/>
<path d="M79.8264 122.579C58.6644 128.331 35.1736 122.785 18.5681 105.94C1.9625 89.0945 -3.50522 65.2649 2.16498 43.7978C23.327 38.0458 46.8178 43.5923 63.4234 60.4374C80.0289 77.2311 85.4966 101.112 79.8264 122.579Z" fill="#46AD5B"/>
<path d="M84.1738 80.9776C78.5036 59.5105 83.9713 35.6809 100.577 18.8358C117.182 1.99077 140.673 -3.55576 161.835 2.19621C167.505 23.6634 162.038 47.493 145.432 64.338C128.827 81.1317 105.336 86.6783 84.1738 80.9776Z" fill="#46AD5B"/>
</svg>
