<svg width="831" height="232" viewBox="0 0 831 232" fill="none" xmlns="http://www.w3.org/2000/svg">
<path d="M207.211 94.1761V212.56C207.211 222.606 199.091 230.718 189.142 230.718H173.09V78.5174C173.09 68.3299 181.304 60.076 191.441 60.076H297.37V212.277C297.37 222.464 289.157 230.718 279.019 230.718H263.25V94.129L207.211 94.1761Z" fill="#1D1D1B"/>
<path d="M319.578 78.5702C319.578 68.3827 327.791 60.1288 337.929 60.1288H379.183C395.704 60.1288 409.737 65.9301 421.33 77.5798C433.063 89.2766 438.93 103.426 438.93 119.934C438.93 136.583 433.063 150.638 421.33 162.052C409.596 173.702 395.563 179.503 379.183 179.503H353.698V212.282C353.698 222.47 345.485 230.724 335.347 230.724H319.578V78.5702ZM397.206 101.822C392.137 96.6815 386.129 94.0875 379.183 94.0875H353.698V145.544L379.183 145.639C386.129 145.639 392.137 143.092 397.206 137.998C402.275 132.904 404.809 126.867 404.809 119.887C404.809 112.906 402.275 106.916 397.206 101.822Z" fill="#1D1D1B"/>
<path d="M592.25 84.2235C609.193 101.25 617.641 121.672 617.641 145.538C617.641 169.45 609.193 189.873 592.25 206.71C575.401 223.501 555.079 231.896 531.378 231.896C507.582 231.802 487.26 223.407 470.505 206.71C453.656 189.778 445.208 169.356 445.208 145.538C445.208 121.767 453.656 101.344 470.505 84.2235C487.448 67.197 507.723 58.7073 531.378 58.7073C555.032 58.7073 575.307 67.2441 592.25 84.2235ZM494.816 108.56C484.726 118.842 479.657 131.105 479.657 145.302C479.657 159.64 484.726 171.856 494.816 182.043C504.86 192.136 517.063 197.183 531.378 197.183C545.505 197.183 557.66 192.136 567.845 182.043C578.029 171.95 583.098 159.687 583.098 145.302C583.098 131.058 577.982 118.795 567.845 108.56C557.754 98.42 545.598 93.3263 531.378 93.3263C516.969 93.3263 504.766 98.42 494.816 108.56Z" fill="#1D1D1B"/>
<path d="M745.413 72.291H770.992C787.512 72.291 801.545 78.0922 813.138 89.7419C824.871 101.439 830.738 118.843 830.738 141.812C830.738 166.856 824.871 185.109 813.138 196.523C801.405 208.173 787.371 213.974 770.992 213.974H745.507C745.507 223.218 738.044 230.718 728.845 230.718H711.339V214.115H685.76C669.24 214.115 655.206 208.314 643.614 196.665C631.88 184.968 626.014 166.621 626.014 141.718C626.014 118.56 631.88 101.297 643.614 89.8363C655.347 78.1866 669.38 72.3853 685.76 72.3853H711.245C711.245 65.6407 716.689 60.2168 723.354 60.2168H745.366L745.413 72.291ZM667.738 172.422C672.807 177.563 678.814 180.157 685.76 180.157H711.245V106.344L685.76 106.25C678.814 106.25 672.807 108.797 667.738 113.89C662.669 118.984 660.135 128.276 660.135 141.718C660.181 157.093 662.716 167.328 667.738 172.422ZM789.014 113.985C783.945 108.844 777.938 106.25 770.992 106.25H745.507V180.015L770.992 180.11C777.938 180.11 783.945 177.563 789.014 172.469C794.083 167.375 796.617 157.14 796.617 141.765C796.57 128.323 794.083 119.078 789.014 113.985Z" fill="#1D1D1B"/>
<path d="M150.029 154.782C155.285 174.497 150.217 196.382 134.822 211.852C119.428 227.322 97.651 232.415 78.0328 227.133C72.7762 207.418 77.8451 185.534 93.2393 170.064C108.633 154.594 130.411 149.5 150.029 154.782Z" fill="#46AD5B"/>
<path d="M2.00705 116.583C21.6253 111.301 43.4025 116.395 58.7967 131.865C74.1909 147.335 79.2597 169.219 74.0031 188.934C54.3849 194.217 32.6077 189.123 17.2135 173.653C1.81934 158.183 -3.24951 136.298 2.00705 116.583Z" fill="#46AD5B"/>
<path d="M78.0328 150.777C72.7762 131.062 77.8451 109.178 93.2393 93.7075C108.633 78.2374 130.411 73.1436 150.029 78.426C155.285 98.1409 150.217 120.025 134.822 135.495C119.428 150.918 97.651 156.012 78.0328 150.777Z" fill="#46AD5B"/>
<path d="M74.0031 112.573C54.3849 117.856 32.6077 112.762 17.2135 97.2917C1.81934 81.8217 -3.24951 59.9372 2.00705 40.2223C21.6253 34.9399 43.4025 40.0337 58.7967 55.5037C74.1909 70.9266 79.2597 92.8583 74.0031 112.573Z" fill="#46AD5B"/>
<path d="M78.0328 74.3677C72.7763 54.6528 77.8451 32.7684 93.2393 17.2983C108.634 1.82827 130.411 -3.26552 150.029 2.01694C155.285 21.7318 150.217 43.6163 134.822 59.0863C119.428 74.5092 97.6511 79.603 78.0328 74.3677Z" fill="#46AD5B"/>
</svg>
